{
  "asset": {
    "generator": "glTF-Transform v4.4.2",
    "version": "2.0"
  },
  "accessors": [
    {
      "type": "VEC3",
      "componentType": 5126,
      "count": 646,
      "max": [
        0.062340568751096725,
        1.7254674434661865,
        0.09447786957025528
      ],
      "min": [
        -0.062340568751096725,
        1.6948596239089966,
        0.0569215789437294
      ],
      "bufferView": 0,
      "byteOffset": 0
    },
    {
      "type": "VEC3",
      "componentType": 5126,
      "count": 646,
      "bufferView": 0,
      "byteOffset": 12
    },
    {
      "type": "VEC2",
      "componentType": 5126,
      "count": 646,
      "bufferView": 0,
      "byteOffset": 24
    },
    {
      "type": "VEC2",
      "componentType": 5126,
      "count": 646,
      "bufferView": 0,
      "byteOffset": 32
    },
    {
      "type": "VEC2",
      "componentType": 5126,
      "count": 646,
      "bufferView": 0,
      "byteOffset": 40
    },
    {
      "type": "VEC2",
      "componentType": 5126,
      "count": 646,
      "bufferView": 0,
      "byteOffset": 48
    },
    {
      "type": "VEC4",
      "componentType": 5121,
      "count": 646,
      "normalized": true,
      "bufferView": 0,
      "byteOffset": 56
    },
    {
      "type": "VEC4",
      "componentType": 5123,
      "count": 646,
      "normalized": true,
      "bufferView": 0,
      "byteOffset": 60
    },
    {
      "type": "VEC4",
      "componentType": 5121,
      "count": 646,
      "bufferView": 0,
      "byteOffset": 68
    },
    {
      "type": "VEC4",
      "componentType": 5126,
      "count": 646,
      "bufferView": 0,
      "byteOffset": 72
    },
    {
      "type": "SCALAR",
      "componentType": 5123,
      "count": 2952,
      "bufferView": 1,
      "byteOffset": 0
    },
    {
      "type": "SCALAR",
      "componentType": 5123,
      "count": 2304,
      "bufferView": 1,
      "byteOffset": 5904
    },
    {
      "type": "SCALAR",
      "componentType": 5125,
      "count": 8532,
      "bufferView": 1,
      "byteOffset": 10512
    },
    {
      "type": "MAT4",
      "componentType": 5126,
      "count": 65,
      "bufferView": 2,
      "byteOffset": 0
    },
    {
      "type": "VEC3",
      "componentType": 5126,
      "count": 556,
      "max": [
        0.04874879866838455,
        1.7135447263717651,
        0.08063791692256927
      ],
      "min": [
        -0.04874879866838455,
        1.6835992336273193,
        0.05123402923345566
      ],
      "bufferView": 3,
      "byteOffset": 0
    },
    {
      "type": "VEC3",
      "componentType": 5126,
      "count": 556,
      "bufferView": 3,
      "byteOffset": 12
    },
    {
      "type": "VEC2",
      "componentType": 5126,
      "count": 556,
      "bufferView": 3,
      "byteOffset": 24
    },
    {
      "type": "VEC2",
      "componentType": 5126,
      "count": 556,
      "bufferView": 3,
      "byteOffset": 32
    },
    {
      "type": "VEC2",
      "componentType": 5126,
      "count": 556,
      "bufferView": 3,
      "byteOffset": 40
    },
    {
      "type": "VEC2",
      "componentType": 5126,
      "count": 556,
      "bufferView": 3,
      "byteOffset": 48
    },
    {
      "type": "VEC4",
      "componentType": 5121,
      "count": 556,
      "normalized": true,
      "bufferView": 3,
      "byteOffset": 56
    },
    {
      "type": "VEC4",
      "componentType": 5123,
      "count": 556,
      "normalized": true,
      "bufferView": 3,
      "byteOffset": 60
    },
    {
      "type": "VEC4",
      "componentType": 5121,
      "count": 556,
      "bufferView": 3,
      "byteOffset": 68
    },
    {
      "type": "VEC4",
      "componentType": 5126,
      "count": 556,
      "bufferView": 3,
      "byteOffset": 72
    },
    {
      "type": "VEC3",
      "componentType": 5126,
      "count": 7281,
      "max": [
        0.9294325113296509,
        1.8100767135620117,
        0.12803764641284943
      ],
      "min": [
        -0.9294325113296509,
        -0.009509669616818428,
        -0.16345079243183136
      ],
      "bufferView": 4,
      "byteOffset": 0
    },
    {
      "type": "VEC3",
      "componentType": 5126,
      "count": 7281,
      "bufferView": 4,
      "byteOffset": 12
    },
    {
      "type": "VEC2",
      "componentType": 5126,
      "count": 7281,
      "bufferView": 4,
      "byteOffset": 24
    },
    {
      "type": "VEC2",
      "componentType": 5126,
      "count": 7281,
      "bufferView": 4,
      "byteOffset": 32
    },
    {
      "type": "VEC4",
      "componentType": 5121,
      "count": 7281,
      "normalized": true,
      "bufferView": 4,
      "byteOffset": 40
    },
    {
      "type": "VEC4",
      "componentType": 5123,
      "count": 7281,
      "normalized": true,
      "bufferView": 4,
      "byteOffset": 44
    },
    {
      "type": "VEC4",
      "componentType": 5121,
      "count": 7281,
      "bufferView": 4,
      "byteOffset": 52
    },
    {
      "type": "VEC4",
      "componentType": 5126,
      "count": 7281,
      "bufferView": 4,
      "byteOffset": 56
    }
  ],
  "bufferViews": [
    {
      "buffer": 0,
      "byteOffset": 0,
      "byteLength": 56848,
      "byteStride": 88,
      "target": 34962
    },
    {
      "buffer": 0,
      "byteOffset": 56848,
      "byteLength": 44640,
      "target": 34963
    },
    {
      "buffer": 0,
      "byteOffset": 101488,
      "byteLength": 4160
    },
    {
      "buffer": 0,
      "byteOffset": 105648,
      "byteLength": 48928,
      "byteStride": 88,
      "target": 34962
    },
    {
      "buffer": 0,
      "byteOffset": 154576,
      "byteLength": 524232,
      "byteStride": 72,
      "target": 34962
    }
  ],
  "samplers": [
    {
      "magFilter": 9729,
      "minFilter": 9987,
      "wrapS": 10497,
      "wrapT": 10497
    }
  ],
  "textures": [
    {
      "source": 1,
      "sampler": 0
    },
    {
      "source": 0,
      "sampler": 0
    },
    {
      "source": 3,
      "sampler": 0
    },
    {
      "source": 2,
      "sampler": 0
    },
    {
      "source": 5,
      "sampler": 0
    },
    {
      "source": 4,
      "sampler": 0
    },
    {
      "source": 6,
      "sampler": 0
    }
  ],
  "images": [
    {
      "name": "T_Hair_1_Normal.png",
      "mimeType": "image/png",
      "uri": "T_Hair_1_Normal.png"
    },
    {
      "name": "T_Hair_1_BaseColor",
      "mimeType": "image/png",
      "uri": "T_Hair_1_BaseColor.png"
    },
    {
      "name": "T_Eye_Normal.png",
      "mimeType": "image/png",
      "uri": "T_Eye_Normal.png"
    },
    {
      "name": "T_Eye_Brown",
      "mimeType": "image/png",
      "uri": "T_Eye_Brown.png"
    },
    {
      "name": "T_Superhero_Male_Normal",
      "mimeType": "image/png",
      "uri": "T_Superhero_Male_Normal.png"
    },
    {
      "name": "T_Superhero_Male_Dark",
      "mimeType": "image/png",
      "uri": "T_Superhero_Male_Dark.png"
    },
    {
      "name": "T_Superhero_Male_Roughness",
      "mimeType": "image/png",
      "uri": "T_Superhero_Male_Roughness.png"
    }
  ],
  "buffers": [
    {
      "uri": "Head_Male.bin",
      "byteLength": 678808
    }
  ],
  "materials": [
    {
      "name": "MI_Hair_1",
      "doubleSided": true,
      "pbrMetallicRoughness": {
        "roughnessFactor": 0.8227272629737854,
        "metallicFactor": 0,
        "baseColorTexture": {
          "index": 0
        }
      },
      "normalTexture": {
        "index": 1
      }
    },
    {
      "name": "MI_Eyes",
      "doubleSided": true,
      "pbrMetallicRoughness": {
        "roughnessFactor": 0.34545454382896423,
        "metallicFactor": 0,
        "baseColorTexture": {
          "index": 2
        }
      },
      "normalTexture": {
        "index": 3
      }
    },
    {
      "name": "MI_Superhero_Male",
      "doubleSided": true,
      "pbrMetallicRoughness": {
        "metallicFactor": 0,
        "baseColorTexture": {
          "index": 4
        },
        "metallicRoughnessTexture": {
          "index": 6
        }
      },
      "normalTexture": {
        "index": 5
      }
    }
  ],
  "meshes": [
    {
      "name": "Face",
      "primitives": [
        {
          "attributes": {
            "POSITION": 0,
            "NORMAL": 1,
            "TEXCOORD_0": 2,
            "TEXCOORD_1": 3,
            "TEXCOORD_2": 4,
            "TEXCOORD_3": 5,
            "COLOR_0": 6,
            "COLOR_1": 7,
            "JOINTS_0": 8,
            "WEIGHTS_0": 9
          },
          "mode": 4,
          "material": 0,
          "indices": 10
        }
      ]
    },
    {
      "name": "Face.001",
      "primitives": [
        {
          "attributes": {
            "POSITION": 14,
            "NORMAL": 15,
            "TEXCOORD_0": 16,
            "TEXCOORD_1": 17,
            "TEXCOORD_2": 18,
            "TEXCOORD_3": 19,
            "COLOR_0": 20,
            "COLOR_1": 21,
            "JOINTS_0": 22,
            "WEIGHTS_0": 23
          },
          "mode": 4,
          "material": 1,
          "indices": 11
        }
      ]
    },
    {
      "name": "Sphere.005_Retopology.004",
      "primitives": [
        {
          "attributes": {
            "POSITION": 24,
            "NORMAL": 25,
            "TEXCOORD_0": 26,
            "TEXCOORD_1": 27,
            "COLOR_0": 28,
            "COLOR_1": 29,
            "JOINTS_0": 30,
            "WEIGHTS_0": 31
          },
          "mode": 4,
          "material": 2,
          "indices": 12
        }
      ]
    }
  ],
  "nodes": [
    {
      "name": "Head",
      "translation": [
        0,
        0.08285234868526459,
        9.313225746154785e-9
      ],
      "rotation": [
        -0.13207007944583893,
        0,
        0,
        0.991240382194519
      ]
    },
    {
      "name": "neck_01",
      "translation": [
        0,
        0.21509313583374023,
        1.862645149230957e-8
      ],
      "rotation": [
        0.25725916028022766,
        0,
        0,
        0.9663424491882324
      ],
      "children": [
        0
      ]
    },
    {
      "name": "index_04_leaf_l",
      "translation": [
        -1.1732481652870774e-9,
        0.024110054597258568,
        -1.3058706826996058e-7
      ],
      "rotation": [
        -1.789221437675792e-9,
        0.9998229742050171,
        3.712300440383842e-7,
        0.018816031515598297
      ]
    },
    {
      "name": "index_03_l",
      "translation": [
        -5.757101462222636e-10,
        0.027911342680454254,
        5.889705789741129e-8
      ],
      "rotation": [
        0.0000019416402210481465,
        -0.000007145895324356388,
        -0.00018566079961601645,
        1
      ],
      "children": [
        2
      ]
    },
    {
      "name": "index_02_l",
      "translation": [
        -8.440110832452774e-10,
        0.032612428069114685,
        1.2031887308694422e-7
      ],
      "rotation": [
        3.8516853351211466e-7,
        0.000049490859964862466,
        -0.0005330402054823935,
        0.9999998807907104
      ],
      "children": [
        3
      ]
    },
    {
      "name": "index_01_l",
      "translation": [
        0.007159475702792406,
        0.1174025684595108,
        0.040643345564603806
      ],
      "rotation": [
        0.008505093865096569,
        0.7068116664886475,
        -0.01852414943277836,
        0.7071080803871155
      ],
      "children": [
        4
      ]
    },
    {
      "name": "middle_04_leaf_l",
      "translation": [
        2.2610038286074996e-9,
        0.030519673600792885,
        1.955777406692505e-7
      ],
      "rotation": [
        -1.5724443969133972e-8,
        0.9998255372047424,
        5.420716675530457e-8,
        0.018679797649383545
      ]
    },
    {
      "name": "middle_03_l",
      "translation": [
        -5.793481250293553e-10,
        0.030116640031337738,
        -6.39629433862865e-8
      ],
      "rotation": [
        -4.686012857746391e-7,
        -0.00005432930265669711,
        -0.0014198303688317537,
        0.9999990463256836
      ],
      "children": [
        6
      ]
    },
    {
      "name": "middle_02_l",
      "translation": [
        -4.098183126188815e-9,
        0.03752607852220535,
        -1.7083948478102684e-8
      ],
      "rotation": [
        5.612571953861334e-7,
        0.0000784045914770104,
        0.0020528144668787718,
        0.9999979138374329
      ],
      "children": [
        7
      ]
    },
    {
      "name": "middle_01_l",
      "translation": [
        0.004682549275457859,
        0.1154387816786766,
        0.015113381668925285
      ],
      "rotation": [
        0.005067416001111269,
        0.7067627906799316,
        -0.02195817232131958,
        0.7070916295051575
      ],
      "children": [
        8
      ]
    },
    {
      "name": "pinky_04_leaf_l",
      "translation": [
        2.8803697205148637e-9,
        0.021523315459489822,
        -3.95521055907011e-8
      ],
      "rotation": [
        -6.453817924523264e-9,
        0.9998291730880737,
        2.147510969052746e-7,
        0.018483733758330345
      ]
    },
    {
      "name": "pinky_03_l",
      "translation": [
        -4.249159246683121e-9,
        0.027430830523371696,
        1.7808633856475353e-7
      ],
      "rotation": [
        0.0000033508222259115428,
        -0.00013744289753958583,
        0.0004660093109123409,
        0.9999998807907104
      ],
      "children": [
        10
      ]
    },
    {
      "name": "pinky_02_l",
      "translation": [
        1.1932570487260818e-8,
        0.03163102641701698,
        -1.7530692275613546e-7
      ],
      "rotation": [
        3.9539517615594377e-7,
        0.00009536039578961208,
        -0.0015674401074647903,
        0.9999988079071045
      ],
      "children": [
        11
      ]
    },
    {
      "name": "pinky_01_l",
      "translation": [
        0.0060377283953130245,
        0.09854141622781754,
        -0.03461737558245659
      ],
      "rotation": [
        0.002601056592538953,
        0.7066821455955505,
        -0.024414697661995888,
        0.7071049809455872
      ],
      "children": [
        12
      ]
    },
    {
      "name": "ring_04_leaf_l",
      "translation": [
        -9.167706593871117e-9,
        0.02910165674984455,
        5.82986103836447e-9
      ],
      "rotation": [
        8.940817863845041e-9,
        0.9998185634613037,
        5.402291662903735e-7,
        0.019049758091568947
      ]
    },
    {
      "name": "ring_03_l",
      "translation": [
        1.204170985147357e-9,
        0.028300179168581963,
        5.35583239980042e-8
      ],
      "rotation": [
        0.000003849756012641592,
        -0.00025297756656073034,
        -0.003387551987543702,
        0.9999942183494568
      ],
      "children": [
        14
      ]
    },
    {
      "name": "ring_02_l",
      "translation": [
        7.916241884231567e-9,
        0.03600123152136803,
        -8.07840478955768e-8
      ],
      "rotation": [
        -0.00000473642239740002,
        0.00021853116049896926,
        0.00239976542070508,
        0.9999971389770508
      ],
      "children": [
        15
      ]
    },
    {
      "name": "ring_01_l",
      "translation": [
        0.004751814063638449,
        0.10940060019493103,
        -0.012370164506137371
      ],
      "rotation": [
        0.015323746018111706,
        0.7069170475006104,
        -0.011713176034390926,
        0.7070334553718567
      ],
      "children": [
        16
      ]
    },
    {
      "name": "thumb_04_leaf_l",
      "translation": [
        -1.0035000741481781e-7,
        0.034558095037937164,
        2.1187588572502136e-8
      ],
      "rotation": [
        1.285916511051255e-7,
        0.38270875811576843,
        -4.782022244853579e-8,
        0.9238690137863159
      ]
    },
    {
      "name": "thumb_03_l",
      "translation": [
        -1.2048985809087753e-8,
        0.03549090400338173,
        -2.9336661100387573e-8
      ],
      "rotation": [
        -5.349284037947655e-8,
        -0.000029730843380093575,
        0.0000017080456018447876,
        1
      ],
      "children": [
        18
      ]
    },
    {
      "name": "thumb_02_l",
      "translation": [
        -1.050066202878952e-7,
        0.039519939571619034,
        3.5390257835388184e-8
      ],
      "children": [
        19
      ]
    },
    {
      "name": "thumb_01_l",
      "translation": [
        0.0274813212454319,
        0.03381355106830597,
        0.04106312245130539
      ],
      "rotation": [
        -0.24446295201778412,
        -0.94356769323349,
        -0.21606169641017914,
        0.05687990039587021
      ],
      "children": [
        20
      ]
    },
    {
      "name": "hand_l",
      "translation": [
        -1.5123794128157897e-7,
        0.243594229221344,
        2.6994939616997726e-9
      ],
      "rotation": [
        -0.015601660124957561,
        -4.1717584053913015e-7,
        -9.051257521264233e-9,
        0.9998782873153687
      ],
      "children": [
        5,
        9,
        13,
        17,
        21
      ]
    },
    {
      "name": "lowerarm_l",
      "translation": [
        3.7845666156499647e-8,
        0.251115083694458,
        -5.1513779908418655e-9
      ],
      "rotation": [
        0.030732227489352226,
        0.0000416175062127877,
        -0.0000012497959005486337,
        0.9995276927947998
      ],
      "children": [
        22
      ]
    },
    {
      "name": "upperarm_l",
      "translation": [
        -0.009135720320045948,
        0.20573900640010834,
        -0.03967121243476868
      ],
      "rotation": [
        0.149803027510643,
        0.6911307573318481,
        -0.14938844740390778,
        0.6910719275474548
      ],
      "children": [
        23
      ]
    },
    {
      "name": "clavicle_l",
      "translation": [
        0.03139999881386757,
        0.1737176477909088,
        0.06732845306396484
      ],
      "rotation": [
        -0.5287374258041382,
        -0.32910192012786865,
        -0.41380804777145386,
        0.663996696472168
      ],
      "children": [
        24
      ]
    },
    {
      "name": "index_04_leaf_r",
      "translation": [
        1.1732481652870774e-9,
        0.02411006949841976,
        -1.3124372344464064e-7
      ],
      "rotation": [
        -1.934766347133632e-9,
        -0.9998229742050171,
        -3.711606666456646e-7,
        0.018816031515598297
      ]
    },
    {
      "name": "index_03_r",
      "translation": [
        4.911271389573812e-10,
        0.027911365032196045,
        6.19775164523162e-8
      ],
      "rotation": [
        0.000001943404186022235,
        0.0000071459307946497574,
        0.00018566078506410122,
        1
      ],
      "children": [
        26
      ]
    },
    {
      "name": "index_02_r",
      "translation": [
        1.2951204553246498e-9,
        0.03261244669556618,
        1.2260898074600846e-7
      ],
      "rotation": [
        3.823500378530298e-7,
        -0.00004935889955959283,
        0.0005330423591658473,
        0.9999998807907104
      ],
      "children": [
        27
      ]
    },
    {
      "name": "index_01_r",
      "translation": [
        -0.007159472443163395,
        0.117402583360672,
        0.040643345564603806
      ],
      "rotation": [
        0.008505097590386868,
        -0.706811785697937,
        0.01852414757013321,
        0.7071079611778259
      ],
      "children": [
        28
      ]
    },
    {
      "name": "middle_04_leaf_r",
      "translation": [
        -2.2610038286074996e-9,
        0.030519699677824974,
        1.9423532648943365e-7
      ],
      "rotation": [
        -1.5782660511831637e-8,
        -0.9998255372047424,
        -5.4032970098205624e-8,
        0.018679797649383545
      ]
    },
    {
      "name": "middle_03_r",
      "translation": [
        -1.1996235116384923e-9,
        0.030116606503725052,
        -6.529444362968206e-8
      ],
      "rotation": [
        -4.687495334110281e-7,
        0.00005432928810478188,
        0.001419831532984972,
        0.9999990463256836
      ],
      "children": [
        30
      ]
    },
    {
      "name": "middle_02_r",
      "translation": [
        4.5683918870054185e-9,
        0.03752603381872177,
        -2.081651473417878e-8
      ],
      "rotation": [
        5.584595896834799e-7,
        -0.00007839182944735512,
        -0.0020528144668787718,
        0.9999979138374329
      ],
      "children": [
        31
      ]
    },
    {
      "name": "middle_01_r",
      "translation": [
        -0.004682543221861124,
        0.1154387965798378,
        0.015113386325538158
      ],
      "rotation": [
        0.005067416001111269,
        -0.7067628502845764,
        0.02195817045867443,
        0.7070915699005127
      ],
      "children": [
        32
      ]
    },
    {
      "name": "pinky_04_leaf_r",
      "translation": [
        -1.3542376109398901e-9,
        0.021523330360651016,
        -4.5925844460725784e-8
      ],
      "rotation": [
        -9.396038613829205e-9,
        -0.9998291730880737,
        -2.1258703952753422e-7,
        0.018483733758330345
      ]
    },
    {
      "name": "pinky_03_r",
      "translation": [
        3.7834979593753815e-10,
        0.027430785819888115,
        1.7545244190841913e-7
      ],
      "rotation": [
        0.0000033533979149069637,
        0.0001374428829876706,
        -0.00046601047506555915,
        0.9999998807907104
      ],
      "children": [
        34
      ]
    },
    {
      "name": "pinky_02_r",
      "translation": [
        -8.046299626585096e-9,
        0.03163103014230728,
        -5.98374754190445e-8
      ],
      "rotation": [
        3.925948135474755e-7,
        -0.00009534749551676214,
        0.0015674429014325142,
        0.9999988079071045
      ],
      "children": [
        35
      ]
    },
    {
      "name": "pinky_01_r",
      "translation": [
        -0.0060377162881195545,
        0.09854142367839813,
        -0.03461737558245659
      ],
      "rotation": [
        0.0026010593865066767,
        -0.7066822052001953,
        0.024414699524641037,
        0.7071049213409424
      ],
      "children": [
        36
      ]
    },
    {
      "name": "ring_04_leaf_r",
      "translation": [
        6.257323548197746e-9,
        0.029101617634296417,
        2.222896000603214e-8
      ],
      "rotation": [
        8.93445140093263e-9,
        -0.9998185634613037,
        -5.40070118404401e-7,
        0.019049877300858498
      ]
    },
    {
      "name": "ring_03_r",
      "translation": [
        -1.204170985147357e-9,
        0.028300197795033455,
        5.154106474947184e-8
      ],
      "rotation": [
        0.000003850367193081183,
        0.00025285835727117956,
        0.0033875522203743458,
        0.9999942183494568
      ],
      "children": [
        38
      ]
    },
    {
      "name": "ring_02_r",
      "translation": [
        -4.307366907596588e-9,
        0.036001186817884445,
        -8.079041435848922e-8
      ],
      "rotation": [
        -0.000004736421942652669,
        -0.0002185181510867551,
        -0.002399763325229287,
        0.9999971389770508
      ],
      "children": [
        39
      ]
    },
    {
      "name": "ring_01_r",
      "translation": [
        -0.0047518047504127026,
        0.10940061509609222,
        -0.012370162643492222
      ],
      "rotation": [
        0.01532374694943428,
        -0.7069171071052551,
        0.011713176965713501,
        0.7070333957672119
      ],
      "children": [
        40
      ]
    },
    {
      "name": "thumb_04_leaf_r",
      "translation": [
        9.080395102500916e-9,
        0.03455810248851776,
        1.7695128917694092e-8
      ],
      "rotation": [
        1.2106264080102846e-7,
        -0.3827088177204132,
        2.8808685215153673e-8,
        0.9238690137863159
      ]
    },
    {
      "name": "thumb_03_r",
      "translation": [
        1.2456439435482025e-8,
        0.03549079969525337,
        8.381903171539307e-9
      ],
      "rotation": [
        -5.1935785450041294e-8,
        0.000029705788620049134,
        -0.0000017005951349347015,
        1
      ],
      "children": [
        42
      ]
    },
    {
      "name": "thumb_02_r",
      "translation": [
        -4.563480615615845e-8,
        0.039520014077425,
        2.8172507882118225e-8
      ],
      "children": [
        43
      ]
    },
    {
      "name": "thumb_01_r",
      "translation": [
        -0.02748131938278675,
        0.03381356596946716,
        0.04106312245130539
      ],
      "rotation": [
        -0.24446293711662292,
        0.9435676336288452,
        0.21606166660785675,
        0.05687989294528961
      ],
      "children": [
        44
      ]
    },
    {
      "name": "hand_r",
      "translation": [
        1.5123667651550932e-7,
        0.2435941994190216,
        2.032038537436165e-9
      ],
      "rotation": [
        -0.015601660124957561,
        4.7677681891400425e-7,
        8.121838313002172e-9,
        0.9998782873153687
      ],
      "children": [
        29,
        33,
        37,
        41,
        45
      ]
    },
    {
      "name": "lowerarm_r",
      "translation": [
        -3.0872001843818e-8,
        0.251115083694458,
        -2.86672729998827e-9
      ],
      "rotation": [
        0.030732227489352226,
        -0.000041677081753732637,
        0.000001251685375791567,
        0.9995276927947998
      ],
      "children": [
        46
      ]
    },
    {
      "name": "upperarm_r",
      "translation": [
        0.009135720320045948,
        0.20573900640010834,
        -0.03967121243476868
      ],
      "rotation": [
        0.1498030126094818,
        -0.6911307573318481,
        0.14938844740390778,
        0.6910719275474548
      ],
      "children": [
        47
      ]
    },
    {
      "name": "clavicle_r",
      "translation": [
        -0.03139999881386757,
        0.1737176477909088,
        0.06732845306396484
      ],
      "rotation": [
        -0.5287374258041382,
        0.32910192012786865,
        0.41380804777145386,
        0.663996696472168
      ],
      "children": [
        48
      ]
    },
    {
      "name": "spine_03",
      "translation": [
        0,
        0.1331336796283722,
        0
      ],
      "rotation": [
        -0.12418898940086365,
        0,
        0,
        0.9922585487365723
      ],
      "children": [
        1,
        25,
        49
      ]
    },
    {
      "name": "spine_02",
      "translation": [
        0,
        0.10634974390268326,
        -1.3969838619232178e-9
      ],
      "rotation": [
        -0.03958535194396973,
        0,
        0,
        0.9992161989212036
      ],
      "children": [
        50
      ]
    },
    {
      "name": "spine_01",
      "translation": [
        0,
        0.1280922144651413,
        -3.259629011154175e-8
      ],
      "rotation": [
        -0.09185619652271271,
        0,
        0,
        0.9957723021507263
      ],
      "children": [
        51
      ]
    },
    {
      "name": "ball_leaf_l",
      "translation": [
        -1.3288261602184548e-9,
        0.07889983803033829,
        -4.233804418163345e-10
      ]
    },
    {
      "name": "ball_l",
      "translation": [
        -4.181756274590498e-9,
        0.15907371044158936,
        -7.893650177948075e-9
      ],
      "rotation": [
        6.497470650401738e-8,
        0.9731196165084839,
        -0.23030038177967072,
        1.894733969720619e-7
      ],
      "children": [
        53
      ]
    },
    {
      "name": "foot_l",
      "translation": [
        0,
        0.4587883949279785,
        5.587935447692871e-9
      ],
      "rotation": [
        -0.5721680521965027,
        1.9553584706955007e-7,
        -1.3641555085541768e-7,
        0.8201364278793335
      ],
      "children": [
        54
      ]
    },
    {
      "name": "calf_l",
      "translation": [
        -7.450580596923828e-9,
        0.4288000166416168,
        3.1723175197839737e-9
      ],
      "rotation": [
        0.05598893761634827,
        0,
        0,
        0.998431384563446
      ],
      "children": [
        55
      ]
    },
    {
      "name": "thigh_l",
      "translation": [
        0.11430513858795166,
        0.023176943883299828,
        0.0004878304898738861
      ],
      "rotation": [
        0.9898310303688049,
        0,
        0,
        0.14224845170974731
      ],
      "children": [
        56
      ]
    },
    {
      "name": "ball_leaf_r",
      "translation": [
        1.3288261602184548e-9,
        0.07889983803033829,
        -4.233804418163345e-10
      ]
    },
    {
      "name": "ball_r",
      "translation": [
        4.181756274590498e-9,
        0.15907371044158936,
        -7.893650177948075e-9
      ],
      "rotation": [
        6.497470650401738e-8,
        -0.9731196165084839,
        0.23030038177967072,
        1.894733969720619e-7
      ],
      "children": [
        58
      ]
    },
    {
      "name": "foot_r",
      "translation": [
        0,
        0.4587883949279785,
        5.587935447692871e-9
      ],
      "rotation": [
        -0.5721680521965027,
        -1.9553584706955007e-7,
        1.3641555085541768e-7,
        0.8201364278793335
      ],
      "children": [
        59
      ]
    },
    {
      "name": "calf_r",
      "translation": [
        7.450580596923828e-9,
        0.4288000166416168,
        3.1723175197839737e-9
      ],
      "rotation": [
        0.05598893761634827,
        0,
        0,
        0.998431384563446
      ],
      "children": [
        60
      ]
    },
    {
      "name": "thigh_r",
      "translation": [
        -0.11430513858795166,
        0.023176943883299828,
        0.0004878304898738861
      ],
      "rotation": [
        0.9898310303688049,
        0,
        0,
        0.14224845170974731
      ],
      "children": [
        61
      ]
    },
    {
      "name": "pelvis",
      "translation": [
        0,
        0.042999982833862305,
        0.9491000175476074
      ],
      "rotation": [
        0.8005710244178772,
        0,
        0,
        0.5992379188537598
      ],
      "children": [
        52,
        57,
        62
      ]
    },
    {
      "name": "root",
      "rotation": [
        -0.7071067690849304,
        0,
        0,
        0.7071067690849304
      ],
      "children": [
        63
      ]
    },
    {
      "name": "Eyebrows",
      "mesh": 0,
      "skin": 0
    },
    {
      "name": "Eyes",
      "mesh": 1,
      "skin": 0
    },
    {
      "name": "SuperHero_Male",
      "mesh": 2,
      "skin": 0
    },
    {
      "name": "Armature",
      "children": [
        65,
        66,
        67,
        64
      ]
    }
  ],
  "skins": [
    {
      "name": "Armature",
      "inverseBindMatrices": 13,
      "joints": [
        64,
        63,
        52,
        51,
        50,
        1,
        0,
        25,
        24,
        23,
        22,
        5,
        4,
        3,
        2,
        9,
        8,
        7,
        6,
        13,
        12,
        11,
        10,
        17,
        16,
        15,
        14,
        21,
        20,
        19,
        18,
        49,
        48,
        47,
        46,
        29,
        28,
        27,
        26,
        33,
        32,
        31,
        30,
        37,
        36,
        35,
        34,
        41,
        40,
        39,
        38,
        45,
        44,
        43,
        42,
        57,
        56,
        55,
        54,
        53,
        62,
        61,
        60,
        59,
        58
      ]
    }
  ],
  "scenes": [
    {
      "name": "Scene",
      "nodes": [
        68
      ]
    }
  ],
  "scene": 0
}